# xmcd
#
# Track frame offsets:
#	150
#	14829
#	32920
#	53257
#	70902
#	90619
#	103648
#	117966
#	137856
#	148869
#	168609
#	192344
#	207344
#	221110
#	240312
#	260243
#	278706
#	296628
#	310135
#
# Disc length: 4345 seconds
#
# Revision: 0
# Processed by: cddbd v1.5.1PL0 Copyright (c) Steve Scherf et al.
# Submitted via: dBpowerAMP V4.0
#
DISCID=2c10f713
DTITLE=Diversos - Music Without Words - Sax  - II
DYEAR=1900
DGENRE=
TTITLE0=New York, New York
TTITLE1=When a man loves a woman
TTITLE2=My heart will go on
TTITLE3=Just the way you are
TTITLE4=How insensitive
TTITLE5=Je taime
TTITLE6=Sleep shores
TTITLE7=I just called to say I love you
TTITLE8=Aranjuez
TTITLE9=Lady lady lady
TTITLE10=Silhouette
TTITLE11=Stardust
TTITLE12=La vie en rose
TTITLE13=La mer
TTITLE14=Orfeo negro
TTITLE15=Fly by night
TTITLE16=Samba pa ti
TTITLE17=Stand by me
TTITLE18=Fly me to the moon
EXTD=
EXTT0=
EXTT1=
EXTT2=
EXTT3=
EXTT4=
EXTT5=
EXTT6=
EXTT7=
EXTT8=
EXTT9=
EXTT10=
EXTT11=
EXTT12=
EXTT13=
EXTT14=
EXTT15=
EXTT16=
EXTT17=
EXTT18=
PLAYORDER=
